<svg xmlns="http://www.w3.org/2000/svg" viewBox="0 0 128 128" id="Amelioration"><path d="m27.87 92.18-11.29 11.34a2 2 0 0 0 0 2.83 2 2 0 0 0 2.83 0L30.71 95a2 2 0 0 0 .58-1.41 2 2 0 0 0-.59-1.41 2.05 2.05 0 0 0-2.83 0zm4.23-4.25a2 2 0 0 0-.58 1.42 2 2 0 0 0 .59 1.41 2 2 0 0 0 1.41.58 2 2 0 0 0 1.41-3.42 2.05 2.05 0 0 0-2.83.01zM6.58 112.56l-6 6a2 2 0 0 0 0 2.83 2 2 0 0 0 2.83 0l6-6a2 2 0 0 0 0-2.82 2 2 0 0 0-2.83-.01z" fill="#595bd4" class="color000000 svgShape"></path><path d="M127.38 19.11a2 2 0 0 0-1.94-.47l-9.77 2.85a2 2 0 1 0 1.12 3.84l2.7-.79-59.71 61.67L40 68.42a2 2 0 0 0-2.72 0l-36.68 35a2 2 0 0 0 2.76 2.89l35.36-33.68 19.82 17.84a2 2 0 0 0 2.77-.09l60.95-62.94-.63 2.56a2 2 0 1 0 3.88 1l2.43-10a2 2 0 0 0-.56-1.89Z" fill="#595bd4" class="color000000 svgShape"></path><ellipse cx="58" cy="110.96" rx="2" ry="2.01" fill="#595bd4" class="color000000 svgShape"></ellipse><path d="M103.87 84.15 92.58 95.48A2 2 0 0 0 92 96.9a2 2 0 0 0 2 2 2 2 0 0 0 1.42-.59L106.7 87a2 2 0 0 0 0-2.83 2.05 2.05 0 0 0-2.83-.02zm4.23-4.26a2 2 0 0 0 0 2.83 2 2 0 1 0 2.82-2.83 2.05 2.05 0 0 0-2.82 0zm11.29-33.11-9.71 3.09a2 2 0 1 0 1.21 3.81l3-1-51.3 50.83a2 2 0 0 0 2.81 2.84l51-50.46-.48 2.2a2 2 0 1 0 3.91.85l2.17-9.83a2 2 0 0 0-2.56-2.33zM45 66.25a2 2 0 0 0 1.4-.58l11.38-11.25a2 2 0 0 0 0-2.83 2.05 2.05 0 0 0-2.83 0L43.59 62.83A2 2 0 0 0 45 66.25zm44.06-45.62a2 2 0 0 0 2.83 0L97.6 15l-.48 2.45a2 2 0 1 0 3.93.76L103 8.38a2 2 0 0 0-2.53-2.3l-10 3a2 2 0 0 0 1.14 3.83l3.53-1-6 6a2 2 0 0 0-.08 2.72zM60.63 50.77a2 2 0 0 0 1.43-3.4 2.05 2.05 0 0 0-2.83 0 2 2 0 0 0 0 2.83 2 2 0 0 0 1.4.57zm22.75-22.51a2 2 0 0 0 1.4-.57 2 2 0 0 0 0-2.84 2.06 2.06 0 0 0-2.83 0 2 2 0 0 0 0 2.83 2 2 0 0 0 1.43.58zM65.74 41.73a2 2 0 0 0 3.41 1.43L80.52 31.9a2 2 0 0 0 0-2.82 2.05 2.05 0 0 0-2.83 0L66.33 40.32a2 2 0 0 0-.59 1.41zM46.32 22.49a2 2 0 0 0 .48-.06l.93-.22a2 2 0 1 0-.88-3.9l-1 .24a2 2 0 0 0 .48 3.94zM64 21.29l1 .11h.26a2 2 0 0 0 .25-4l-1-.12a2 2 0 1 0-.43 4zM72.43 23l.92.28a2 2 0 0 0 .61.09 2 2 0 0 0 .6-3.91l-1-.3A2 2 0 1 0 72.43 23zM55.2 21.11h.13l1-.05A2 2 0 0 0 58.19 19a2 2 0 0 0-2.09-1.9l-1 .06a2 2 0 0 0 .13 4zM7.14 67.1h.24a2 2 0 0 0 2-1.77c0-.32.08-.63.12-.95a2 2 0 1 0-4-.55q-.07.52-.13 1a2 2 0 0 0 1.77 2.27zm1.47-8.88a2 2 0 0 0 2.49-1.35l.28-.92a2 2 0 0 0-3.81-1.21c-.1.33-.21.66-.3 1a2 2 0 0 0 1.34 2.48zm29.22-32.8a2 2 0 0 0 .82-.18l.87-.38A2 2 0 1 0 38 21.17l-1 .42a2 2 0 0 0 .82 3.83zM7.06 76.09h.1A2 2 0 0 0 9.06 74v-1a2 2 0 0 0-4 .12v1a2 2 0 0 0 2 1.97zm.6 3.97a2 2 0 0 0-1.56 2.35q.1.51.22 1a2 2 0 0 0 3.9-.87l-.2-.94a2 2 0 0 0-2.36-1.54zm3.91-30.34a2 2 0 0 0 2.68-.9l.44-.86a2 2 0 1 0-3.55-1.84l-.47.92a2 2 0 0 0 .9 2.68zM30 29.79a2 2 0 0 0 1.12-.34l.8-.53a2 2 0 0 0-2.18-3.35l-.86.57A2 2 0 0 0 30 29.79zm-7 5.67a2 2 0 0 0 1.39-.56l.7-.66a2 2 0 0 0-2.73-2.93l-.75.71A2 2 0 0 0 23 35.46zm-7.07 6.4a2 2 0 0 0 2.79-.44l.57-.77a2 2 0 0 0-3.19-2.42l-.62.83a2 2 0 0 0 .45 2.8z" fill="#595bd4" class="color000000 svgShape"></path></svg>