<svg xmlns="http://www.w3.org/2000/svg" viewBox="0 0 200 200" id="business-solution"><path fill="#FF6C85" d="M66.851 168.373c-1.267.731-1.767 1.827-1.238 2.859.644 1.286 2.673 2.172 4.987 2.136.337-.006.713.11 1.005.228.35.141.623.347.923.521.54.324.533.66-.01.983l-9.217 5.322 8.446 4.909c.42-1.285 1.21-2.296 2.394-2.98 1.576-.91 3.851-1.24 6.886-.868 3.362.413 5.403 2.32 5.109 4.266-.136.92-.821 1.894-2.101 2.634-1.153.665-2.787 1.139-4.937 1.21l8.482 4.929 6.576-3.756c.584-.337 1.16-.675 1.742-1.01.29-.168.582-.335.877-.502.61-.347 1.203-.337 1.813.007.088.052.177.113.283.165.367.167.662.354.834.572.093.11.1.234.096.355-.006.284.054.567.185.839.136.27.29.513.524.737.026.046.066.095.1.156.164.085.301.19.456.285.101.075.154.106.212.139.41.239.866.426 1.375.562.367.147.788.21 1.235.244.527.054.922.067 1.312.046.177-.01.359-.018.532-.036a4.5 4.5 0 0 0 .51-.069c.173-.028.341-.059.497-.092.075-.013.155-.034.222-.057.088-.02.177-.051.266-.077.448-.13.862-.308 1.23-.521a3.902 3.902 0 0 0 .9-.698c.089-.103.16-.19.223-.272a2 2 0 0 0 .341-.776c.014-.08.023-.156.028-.23.067-.786-.43-1.585-1.464-2.185a4.504 4.504 0 0 0-.433-.221 5.515 5.515 0 0 0-.796-.303c-.862-.27-1.846-.378-2.79-.329a1.825 1.825 0 0 1-.867-.303c-.243-.161-.521-.303-.769-.452-.547-.318-.559-.654-.007-.978.299-.176.6-.351.903-.526.605-.35 1.215-.697 1.822-1.047l5.754-3.322c.111-.065.205-.129.307-.188.538-.31.078-.567-1.249-.983-2.898-.886-5.181-2.305-6.563-4.03-.07-.078-.12-.085-.323-.178-.08 1.143-.729 2.098-2.016 2.841-.257.149-.539.288-.847.42-1.467.626-3.139.885-4.956.808-3.319-.13-6.106-1.71-6.423-3.702-.193-1.178.39-2.246 1.755-3.152.117-.078.237-.152.36-.223 1.32-.762 2.95-1.127 4.918-1.181-.155-.106-.234-.167-.323-.229l-8.23-4.742-9.124 5.268c-.503.29-1.318.29-1.817 0l-.11-.064c-.73-.372-1.135-.773-1.225-1.402-.286-1.984-3.754-3.14-6.976-2.374a5.997 5.997 0 0 0-1.609.617z"></path><path fill="#ACF9AC" d="m126.329 132.523-8.658 4.947c2.69.049 4.708.742 6.061 2.023.94.886 1.208 1.872.87 2.901-.264.828-.984 1.573-1.982 2.149-1.255.725-2.949 1.183-4.73 1.204-1.998.028-3.756-.339-5.227-1.122-1.472-.788-2.144-1.787-2.222-2.98l-8.635 4.985c.446.26.906.531 1.37.796 2.549 1.47 5.093 2.945 7.63 4.418.759.431.748.74.023 1.168-.088.052-.181.098-.269.149a1.648 1.648 0 0 0-.126.08c-.051.035-.103.068-.156.099-.442.255-.961.347-1.646.363-1.318.025-2.466.346-3.312.835-1.435.828-2 2.137-1.05 3.285 1.245 1.517 4.07 2.185 6.826 1.397a6.404 6.404 0 0 0 1.448-.588c.844-.488 1.324-1.133 1.34-1.918-.001-.333.114-.606.5-.829.057-.033.12-.064.188-.095.095-.04.18-.084.261-.131.056-.032.109-.065.162-.097.084-.054.173-.106.258-.155.55-.318 1.127-.318 1.688.003.672.38 1.325.77 1.997 1.16l7.134 4.147 8.298-4.79c-1.449-.142-2.834-.54-3.947-1.187-2.858-1.66-2.848-4.354.034-6.018 2.877-1.66 7.526-1.658 10.384.003 1.113.647 1.791 1.448 2.03 2.288l7.662-4.424-9.012-5.237c-.72-.418-.7-.706.01-1.127.176-.107.246-.15.316-.19.574-.332 1.208-.505 2.144-.54 1.212-.043 2.27-.35 3.065-.809 1.4-.808 1.982-2.087 1.146-3.223-1.117-1.535-4.26-2.244-6.87-1.474a6.784 6.784 0 0 0-1.468.604c-.927.535-1.395 1.235-1.415 2.1-.006.202-.202.418-.398.587a2.167 2.167 0 0 1-.298.201c-.171.1-.361.191-.538.287-.649.375-1.207.38-1.843.01l-9.043-5.255z"></path><path fill="#DF85DE" d="M74.131 132.685c-1.126.657-2.256 1.31-3.386 1.963-1.508.87-3.018 1.739-4.524 2.609-.09.051-.156.115-.299.213 2.34.051 4.225.575 5.593 1.633 1.1.855 1.577 1.843 1.402 2.911-.153.972-.93 1.863-2.085 2.53-1.16.67-2.703 1.114-4.38 1.187-2.052.095-3.859-.238-5.419-1.042-1.542-.793-2.299-1.79-2.367-3.03l-8.609 4.97 9.017 5.24c.698.406.696.704.002 1.104-.18.113-.26.163-.342.21-.57.329-1.213.504-2.148.538-1.219.047-2.28.353-3.073.81-1.396.806-1.96 2.083-1.081 3.25 1.183 1.585 4.282 2.211 6.888 1.428a6.64 6.64 0 0 0 1.42-.587c.907-.524 1.377-1.211 1.379-2.052-.011-.258.106-.469.412-.645.194-.1.3-.16.405-.22l.208-.12c.102-.065.213-.129.32-.19.56-.314 1.15-.306 1.732.033l9.118 5.299 8.627-4.98c-2.646-.044-4.619-.707-5.99-1.937-.918-.816-1.236-1.738-1.044-2.713.176-.925.92-1.767 2.026-2.405 1.128-.652 2.633-1.092 4.296-1.194 2.08-.131 3.948.203 5.526 1.011 1.564.796 2.29 1.825 2.39 3.073l8.63-4.983-9.012-5.237c-.725-.421-.727-.732-.016-1.148.09-.05.182-.098.27-.148.043-.026.086-.052.126-.08.056-.04.114-.078.174-.112.439-.254.97-.347 1.668-.358 1.309-.026 2.439-.345 3.273-.827 1.443-.833 2.002-2.151 1.076-3.28-1.237-1.507-4.034-2.2-6.827-1.417-.56.156-1.049.354-1.455.588-.83.479-1.312 1.113-1.346 1.879-.014.367-.133.657-.55.898a2.165 2.165 0 0 1-.192.098c-.075.036-.147.075-.218.115s-.14.084-.208.126l-.167.099c-.576.33-1.232.325-1.696.024l-8.83-5.127c-.274-.159-.434-.17-.714-.007z"></path><path fill="#5576DB" d="M79.533 119.515c-1.984 1.145-1.994 2.998-.024 4.143a6.248 6.248 0 0 0 1.734.658c.132.061.305.084.5.1.514.077.966.108 1.431.095.08.01.15.015.23.025.28.023.576.088.793.188.371.174.689.385 1.025.58.543.32.554.657.003.98-.287.17-.577.339-.868.507-.583.336-1.168.67-1.747 1.003-1.39.803-2.776 1.608-4.166 2.41-.696.402-1.392.803-2.09 1.202-.276.16-.282.254-.01.411 2.61 1.517 5.203 3.04 7.814 4.557.11.064.238.123.433.226.043-1.17.704-2.131 2.002-2.88.252-.146.53-.284.83-.414 1.431-.621 3.082-.898 4.89-.827 3.35.14 6.226 1.723 6.525 3.715.17 1.186-.412 2.244-1.786 3.155-.12.08-.242.156-.368.229-1.308.755-2.94 1.117-4.901 1.17l8.552 4.97 9.09-5.247c.71-.41 1.19-.405 1.896 0 .097.057.181.12.283.165.685.315.94.695.99 1.23.167 1.925 3.807 3.288 7.065 2.42a6.531 6.531 0 0 0 1.576-.629c1.627-.939 1.936-2.39.588-3.64-.912-.84-2.315-1.335-4.11-1.317-.62.005-1.12-.09-1.509-.372-.203-.144-.446-.26-.671-.39-.553-.332-.56-.67.019-1.004l9.2-5.312-8.438-4.898c-.028 1.07-.752 2.128-2.166 2.944-2.877 1.661-7.527 1.659-10.38 0-2.863-1.663-2.857-4.359.02-6.02 1.414-.816 3.247-1.23 5.095-1.242l-8.424-4.886c-.142.077-.316.152-.463.236l-3.433 1.982c-1.717.991-3.434 1.984-5.144 2.98-.639.37-1.395.482-2.07.003a2.877 2.877 0 0 0-.415-.24c-.561-.265-.72-.579-.743-1-.04-.893-.767-1.65-1.859-2.151a4.349 4.349 0 0 0-.433-.19 7.188 7.188 0 0 0-1.075-.3c-1.806-.375-3.86-.152-5.291.675z"></path><path fill="#CFDEE8" d="M71.178 101.944c.923 4.858 5.177 8.533 10.303 8.533 5.125 0 9.379-3.675 10.302-8.533H71.178z"></path><g fill="#E7F1F7"><path d="m97.47 76.536-.067 20.472c-.007 2.35-1.555 4.698-4.65 6.497-6.208 3.608-16.295 3.608-22.544 0-3.15-1.818-4.724-4.206-4.717-6.59l.066-20.471c-.006 2.383 1.568 4.771 4.717 6.59 6.25 3.607 16.336 3.607 22.545 0 3.095-1.8 4.643-4.148 4.65-6.498z"></path><path d="M92.763 69.965c6.25 3.608 6.282 9.45.057 13.068-6.209 3.608-16.295 3.608-22.545 0-6.249-3.608-6.299-9.46-.09-13.068 6.226-3.618 16.329-3.608 22.578 0z"></path></g><path fill="#FFD469" d="M102.63 58.18c-3.18 2.813-5.137 6.789-5.137 11.04v7.614c.03 2.355-1.53 4.74-4.649 6.544-6.238 3.64-16.36 3.64-22.63 0-3.18-1.804-4.74-4.159-4.74-6.544v-7.615c0-4.22-1.865-8.195-5.045-10.978-6.758-5.872-11.009-14.526-11.009-24.159 0-18.868 16.269-33.945 35.565-31.895 14.832 1.56 26.88 13.67 28.38 28.5 1.13 10.949-3.242 20.918-10.735 27.492z"></path><path fill="#FFE088" d="M92.765 70.276c6.275 3.622 6.308 9.493.074 13.116s-16.368 3.622-22.643 0c-6.275-3.623-6.308-9.493-.074-13.116 6.234-3.623 16.369-3.623 22.643 0z"></path><path fill="#FFF" d="M87.368 74.91a1.148 1.148 0 0 1-1.133-1.333l6.26-38.065a1.148 1.148 0 0 1 2.264.373L88.498 73.95c-.093.561-.58.96-1.13.96zm-8.102 4.95c-.519 0-.987-.354-1.114-.88L70.97 49.074a1.147 1.147 0 0 1 .848-1.382 1.156 1.156 0 0 1 1.383.848l7.18 29.907a1.147 1.147 0 0 1-1.116 1.414z"></path><path fill="#FFF" d="M72.028 53.635c-1.207 0-2.45-.594-3.26-1.621-.81-1.03-1.21-2.454-1.13-4.011.068-1.287.428-2.471.775-3.618.422-1.4.86-2.85 1.617-4.217.9-1.622 2.117-2.815 3.52-3.452.768-.35 1.516-.527 2.397-.506.01-.026.023-.051.033-.078 1.2-2.713 3.252-4.632 5.637-5.264a7.043 7.043 0 0 1 4.992.554c.805-1.373 1.905-2.816 3.506-3.749 1.995-1.162 4.981-1.329 6.833.585.882.908 1.42 2.234 1.553 3.833.328 3.926-1.758 7.86-5.19 9.793a1.147 1.147 0 0 1-1.126-1.998c2.624-1.477 4.28-4.604 4.031-7.604-.063-.742-.272-1.766-.914-2.427-.99-1.022-2.828-.9-4.033-.2-1.254.731-2.149 1.98-2.815 3.16a7.051 7.051 0 0 1 1.876 4.105c.137 1.411-.153 2.739-.488 4.087-.21.84-.44 1.653-.952 2.388-.706 1.006-1.817 1.551-2.874 1.46-1.251-.12-2.352-1.166-2.679-2.541-.258-1.086-.05-2.13.166-3.024a30.949 30.949 0 0 1 2.049-5.834 4.737 4.737 0 0 0-3.348-.37c-1.6.424-3.075 1.79-3.99 3.68.197.105.387.223.566.356 1.523 1.126 2.29 3.17 2.222 5.911-.027 1.07-.16 2.439-.96 3.55-.866 1.202-2.715 1.96-4.18 1.093-1.848-1.089-1.553-3.62-1.456-4.451.181-1.535.365-3.103.748-4.641a3.33 3.33 0 0 0-.657.22c-1.202.546-2.002 1.648-2.46 2.476-.64 1.152-1.041 2.482-1.43 3.77-.307 1.016-.625 2.066-.679 3.074-.052 1 .175 1.878.64 2.47.456.574 1.23.879 1.802.698a1.147 1.147 0 0 1 .678 2.192c-.33.102-.674.151-1.02.151zm5.396-14.663c-.38 1.462-.561 3.009-.739 4.52-.182 1.551.085 2.057.342 2.208.29.175.863-.052 1.154-.457.43-.597.508-1.48.527-2.266.035-1.365-.16-3.166-1.284-4.005zm9.906-3.884a28.551 28.551 0 0 0-1.598 4.741c-.152.635-.304 1.362-.164 1.953.097.41.397.763.667.79.236.013.56-.184.775-.491.289-.412.445-.981.607-1.63.285-1.145.533-2.26.431-3.308a4.701 4.701 0 0 0-.718-2.055z"></path><g fill="#CFDEE8"><path d="M97.436 80.876v1.661c-.007 2.35-1.555 4.699-4.65 6.497-6.208 3.608-16.295 3.608-22.544 0-3.149-1.818-4.724-4.205-4.717-6.589v-1.66c-.007 2.383 1.568 4.77 4.717 6.588 6.25 3.608 16.336 3.608 22.544 0 3.095-1.798 4.643-4.146 4.65-6.497z"></path><path d="M97.436 86.21v1.661c-.007 2.35-1.555 4.698-4.65 6.497-6.208 3.608-16.295 3.608-22.544 0-3.149-1.818-4.724-4.206-4.717-6.59v-1.66c-.007 2.383 1.568 4.77 4.717 6.589 6.25 3.608 16.336 3.608 22.544 0 3.095-1.799 4.643-4.147 4.65-6.497z"></path><path d="M97.436 91.543v1.662c-.007 2.35-1.555 4.698-4.65 6.497-6.208 3.608-16.295 3.608-22.544 0-3.149-1.818-4.724-4.206-4.717-6.59v-1.66c-.007 2.383 1.568 4.77 4.717 6.589 6.25 3.608 16.336 3.607 22.544 0 3.095-1.8 4.643-4.147 4.65-6.498z"></path></g><path fill="#616173" d="m195.618 80.147-.149 51.559c0 .894-.312 1.527-.826 1.817l-1.05.61c.514-.29.826-.923.826-1.816l.15-51.56c.007-1.794-1.267-3.998-2.83-4.9l-70.67-40.804c-.797-.455-1.512-.492-2.025-.194l1.05-.61c.514-.298 1.229-.261 2.018.2l70.676 40.798c1.564.908 2.838 3.105 2.83 4.9z"></path><path fill="#E7F1F7" d="M191.739 75.859c1.564.903 2.834 3.103 2.83 4.9l-.147 51.557c-.005 1.803-1.284 2.526-2.848 1.623l-70.673-40.803c-1.569-.906-2.84-3.1-2.834-4.903l.146-51.557c.005-1.797 1.284-2.526 2.853-1.62l70.673 40.803z"></path><path fill="#85CDFD" d="M191.498 109.196c.333.206.573.425.789.677l-.061 21.527a681.62 681.62 0 0 1-19.353-11.446 727.274 727.274 0 0 1-26.164-16.849l.04-14.005c.132 0 .271.01.428.056.169.047.34.123.508.22.913.527 1.795 1.706 2.18 2.73.457 1.218.409 2.272.42 3.324.01 1.049.115 2.22.803 3.442.613 1.095 1.58 1.987 2.59 2.57.973.561 1.984.836 2.754.728 1.57-.216 2.359-1.568 2.966-2.969.608-1.397 1.128-2.932 2.372-3.648.339-.193.765-.32 1.301-.09.067.028.135.062.201.1.611.353 1.187 1.083 1.503 1.76.35.752.45 1.462.542 2.149.225 1.677.464 3.418 1.373 5.258.742 1.5 2.065 3.085 3.4 3.856.299.173.598.304.892.385 1.892.52 2.609-1.175 2.896-2.833.284-1.66.554-3.583 2.173-3.727.564-.051 1.258.163 1.952.564a7.242 7.242 0 0 1 2.257 2.09c1.05 1.52 1.324 3.11 1.41 4.494.09 1.383.06 2.755.693 4.32.502 1.238 1.598 2.634 2.684 3.26.285.166.57.277.843.319 1.108.167 1.526-.83 1.818-1.756.567-1.769 1.13-3.536 1.693-5.307.29-.912.913-1.882 2.097-1.199z"></path><path fill="#3765C7" d="m126.344 52.5 1.793 1.365c-.08.522-.127 1.072-.129 1.664-.004 1.736.347 3.583.968 5.406l-1.632-.023c-.739-2.164-1.153-4.362-1.147-6.428.002-.703.054-1.366.147-1.984z"></path><path fill="#85CDFD" d="M130.607 60.953c1.256 3.671 3.883 7.22 6.926 8.978 3.026 1.746 5.66 1.25 6.936-.938l1.622 1.86c-1.575 2.704-4.826 3.317-8.563 1.16-3.756-2.17-7.002-6.549-8.552-11.078l1.631.018z"></path><path fill="#FFC950" d="m137.591 47.985-.006 2.087c-4.745-2.74-8.708-1.015-9.448 3.793l-1.793-1.365c.88-5.731 5.59-7.781 11.247-4.515z"></path><path fill="#75D178" d="M137.585 50.072c1.903 1.099 3.676 2.768 5.16 4.733l-.986 1.185c-1.202-1.592-2.637-2.946-4.175-3.834l.001-2.084z"></path><path fill="#F46CB4" d="M142.745 54.805c2.628 3.476 4.37 7.885 4.36 11.75-.006 1.75-.37 3.2-1.014 4.299l-1.622-1.86c.52-.899.815-2.067.82-3.488.008-3.13-1.399-6.7-3.53-9.516l.986-1.185z"></path><path fill="#94ED96" d="M137.591 47.985c2.268 1.31 4.378 3.295 6.145 5.628l-.99 1.192c-1.485-1.965-3.258-3.634-5.156-4.73l.001-2.09z"></path><path fill="#FF8DC4" d="M143.736 53.613c3.128 4.137 5.193 9.384 5.18 13.987-.006 2.087-.436 3.814-1.198 5.127l-1.627-1.873c.643-1.1 1.008-2.548 1.013-4.3.011-3.864-1.731-8.273-4.359-11.749l.991-1.192z"></path><path fill="#FFB839" d="m137.585 50.072-.006 2.082c-3.846-2.216-7.054-.823-7.655 3.074l-1.787-1.363c.74-4.808 4.703-6.533 9.448-3.793z"></path><path fill="#1352AB" d="m128.137 53.865 1.787 1.363c-.065.42-.098.873-.1 1.35-.003 1.405.28 2.903.783 4.375l-1.631-.018c-.621-1.823-.972-3.67-.968-5.406.002-.592.05-1.142.129-1.664z"></path><path fill="#B0E3FF" d="M128.976 60.935c1.55 4.53 4.796 8.909 8.552 11.077 3.737 2.158 6.988 1.545 8.563-1.158l1.627 1.873c-1.874 3.22-5.738 3.946-10.196 1.372-4.477-2.585-8.337-7.797-10.178-13.187l1.632.023z"></path><g fill="#616173"><path d="m129.542 78.941-.002.558-4.261-2.46.002-.558zM138.067 86.66l-.002.558-12.794-7.386.002-.558zM134.231 78.851l-.002.558-8.942-5.163.002-.558zM134.199 89.961l-.001.558-8.942-5.162.001-.558zM129.51 90.051l-.001.558-4.261-2.46.001-.558zM138.035 97.771l-.001.558-12.794-7.387.001-.558zM137.556 94.697l-.001.558-7.217-4.167.001-.558zM141.904 94.41l-.002.558-6.924-3.998.002-.558zM140.79 90.969l-.002.559-15.525-8.963.002-.559zM137.588 83.586l-.002.559-7.217-4.167.002-.558zM141.935 83.299l-.001.558-6.924-3.997.001-.558zM140.821 79.859l-.001.558-15.525-8.963.002-.559zM145.812 88.334l-.002.559-7.103-4.101.002-.558zM145.82 85.542l-.002.558-2.91-1.68.002-.558zM145.788 96.652l-.001.558-2.91-1.68.002-.558zM145.78 99.445l-.001.558-7.103-4.101.001-.558z"></path></g><path fill="#FED0B5" d="m151.622 131.447.451-2.489-2.84-.365s-1.297-1.694-1.608-1.814c-.31-.119-1.108-1.074-1.28-1.297-.171-.223-.314-.614-.503-.47-.189.143-.334.704-.086 1.04.248.337.871.883.931.96.06.078.19.42.078.449s-.738.18-.954.17c-.216-.01-3.97-1.273-4.057-1.25-.088.023-.451.158-.266.458s3.092 1.477 3.092 1.477l-.066.205-3.42-.748s-.366-.025-.383.368c-.016.393 3.69 1.12 3.69 1.12l-.016.191s-3.103-.457-3.262-.402-.28.556.212.654 3.372.413 3.372.413l.087.232s-2.462.26-2.612.298c-.299.075-.236.514.05.496.127-.009 5.13.004 5.485-.009s1.057-.184 1.057-.184l2.848.497z"></path><path fill="#E22951" d="M162.452 121.04s1.854-7.851 5.834-5.016c3.98 2.835-2.998 20.009-4.416 20.5-1.418.49-13.425-4.977-13.425-4.977-.693-1.072-.563-2.165.303-3.28l10.232 1.441s1.2-7.96 1.472-8.668zm9.79 71.92s-3.727 3.91-2.774 4.597 4.26.757 5.745-1.121 3.476-2.579 3.714-3.336-.182-3.349-.574-3.643-5.816 2.789-6.11 3.503z"></path><path fill="#FED0B5" d="M178.252 188.45c0 .675.764.36-.54 3.507-1.258 3.147-4.855 3.597-5.619 3.057-.809-.54 1.304-3.372 2.428-5.305 1.124-1.933 1.07-5.927 1.07-5.927l3.83-.456c.09.583-1.124 4.495-1.169 5.124z"></path><path fill="#3A3A3A" d="M179.97 184.425c-.855 2.112-4.901 1.348-5.306 1.124-.404-.27-.09-3.058-.674-7.104-.585-4.001-1.214-4.72-1.933-6.43-.72-1.707.09-11.732.09-11.732s7.283-3.507 7.867-1.26c.63 2.293-.989 12.004-.989 12.004v.18c1.798 5.484 1.798 11.149.944 13.218z"></path><path fill="#E22951" d="M160.561 189.159s-3.727 3.91-2.774 4.597c.952.686 4.26.756 5.745-1.122s3.476-2.578 3.714-3.335-.182-3.35-.575-3.644-5.815 2.79-6.11 3.504z"></path><path fill="#FED0B5" d="M166.571 184.649c0 .675.764.36-.54 3.507-1.258 3.146-4.855 3.596-5.619 3.056-.81-.539 1.304-3.371 2.428-5.304 1.123-1.933 1.07-5.928 1.07-5.928l3.83-.456c.09.584-1.124 4.496-1.169 5.125z"></path><path fill="#3A3A3A" d="M170.124 161.361c0 .135-1.439 5.215-.63 8.677.81 3.507-1.753 9.98-1.753 9.98-1.253.445-2.542.452-3.866.045 0 0-.63-7.192-.99-8.946-.404-1.753.27-12.138.27-12.138l6.969 2.382z"></path><path fill="#EA3D5B" d="M180.765 159.204c-4.271 4.72-17.713 1.214-18.523.045-.764-1.17.27-12.184.495-14.298.225-2.157 2.383-12.857 2.293-14.116 0-.405-.135-.898-.36-1.438-.225-.494-.45-1.034-.72-1.663-.359-.72-.764-1.574-1.078-2.518-.944-2.607 2.472-9.127 2.472-9.127 1.17-.223 2.203-.36 3.237-.36 1.933 0 3.642.315 5.035.81 2.788.854 4.698 2.169 4.698 2.169s-1.056 5.294-1.506 9.79c-.27 2.788-.45 5.26-.27 6.114.046.224.18.584.36 1.124 1.619 4.496 7.643 19.197 3.867 23.468z"></path><path fill="#E22951" d="m176.887 135.736-.18.09c-1.259-2.024-4.586-4.45-7.283-5.306-1.349-.493-3.237-.853-4.766-1.123-.224-.494-.449-1.034-.719-1.663.045 0 .135 0 .225-.045 1.394-.225 6.474 1.618 9.666 2.473 1.348.358 2.427-.63 2.967-1.664-.27 2.788-.45 5.26-.27 6.114.045.224.18.584.36 1.124z"></path><path fill="#FED0B5" d="m177.342 144.447-1.798-.892-.902 2.085s-1.577.616-1.736.827c-.16.21-1.063.609-1.27.69-.208.082-.538.105-.47.28.068.176.463.41.774.295.311-.115.865-.47.937-.499.073-.029.361-.053.359.04-.002.091-.025.602-.08.764s-1.843 2.746-1.845 2.818c-.002.071.022.379.29.303s1.807-2.032 1.807-2.032l.141.096-1.322 2.442s-.1.273.197.372c.295.1 1.664-2.566 1.664-2.566l.143.054s-1.03 2.265-1.024 2.398c.007.133.362.336.545-.017s1.056-2.48 1.056-2.48l.196-.015s-.343 1.934-.347 2.056c-.008.245.34.293.389.07.022-.098 1.131-3.908 1.2-4.182s.091-.846.091-.846l1.005-2.061z"></path><path fill="#FD546B" d="M174.744 123.707c-.1-1.52.74-5.815 3.407-5.05s3.406 13.879 3.273 14.308-2.816 11.881-5.09 13.726l-2.084-.838s2.427-9.671 2.43-12.24c.001-2.57-1.77-7.388-1.936-9.906z"></path><path fill="#2A2A38" d="M168.839 113.483a75.323 75.323 0 0 0-.404-2.73l-.777-4.695c-.025-.155-.057-.32-.17-.43-.134-.13-.354-.139-.527-.067-.173.073-.258-.925-.384-.785-1.03 1.136-1.735 3.74-1.893 5.266-.172 1.666.228 3.411-.322 4.994-.159.456-.395.893-.463 1.372-.096.685.17 1.382.582 1.938.409.555.959.937 1.446 1.412.387.376.903.722 1.469.734a18.078 18.078 0 0 1 1.443-7.01z"></path><path fill="#F2C0A7" d="M173.616 116.54c-.134.538-.27 1.123-.494 1.662-1.08 2.833-3.012 4.721-4.36 4.227-1.305-.54-1.53-3.238-.45-6.07.09-.225.18-.45.27-.63 1.932 0 3.64.315 5.034.81z"></path><path fill="#FFDCC5" d="M176.043 111.536c0 3.518-2.163 6.37-4.831 6.37-2.668 0-4.831-2.852-4.831-6.37s.165-6.862 2.834-6.862 6.828 3.343 6.828 6.862z"></path><path fill="#2A2A38" d="M177.012 113.397c-.697 1.395-.349 4.49-.218 5.189.175.697-1.003 4.055-2.878 2.878-1.875-1.178-3.445-3.706-2.005-4.667 1.438-.958.915-1.525.915-1.525-1.962-1.396-1.831-3.489-1.308-4.58.523-1.09.262-1.568-1.44-1.83-1.7-.262-3.924-1.047-4.055-1.178l.088-.13s-.916-.873.741-3.14c1.657-2.312 6.061-2.006 8.896.653 2.834 2.66 1.962 6.934 1.264 8.33z"></path><path fill="#34343D" d="m42.795 126.634-1.457-.847-.002-.675 1.457.847z"></path><path fill="#616173" d="m42.793 125.959-1.457-.847 5.615-3.241 1.457.847z"></path><path fill="#535363" d="m41.622 127.312-1.458-.847 1.174-.678 1.457.847z"></path><path fill="#34343D" d="m41.622 127.312-1.458-.847-.002-.675 1.458.847z"></path><path fill="#474756" d="m48.408 122.718.004 1.348-12.402 7.161-.004-1.349 5.614-3.241.002.675 1.173-.678-.002-.675z"></path><path fill="#616173" d="m36.006 129.878-1.457-.847 5.613-3.241 1.458.847z"></path><path fill="#4C4C5E" d="m36.01 131.227-1.457-.847-.004-1.349 1.457.847zM41.62 126.637l-1.458-.847-.065-23.176 1.457.847z"></path><path fill="#616173" d="m41.554 103.461-1.457-.847 1.173-.677 1.458.846z"></path><path fill="#474756" d="m42.728 102.783.065 23.176.002.675-1.173.678-.002-.675-.066-23.176z"></path><path fill="#34343D" d="m24.141 115.846-1.458-.847-.001-.675 1.457.847z"></path><path fill="#616173" d="m24.139 115.171-1.457-.847 5.614-3.242 1.458.847z"></path><path fill="#535363" d="m22.967 116.523-1.457-.846 1.173-.678 1.458.847z"></path><path fill="#34343D" d="m22.967 116.523-1.457-.846-.002-.676 1.457.847z"></path><path fill="#474756" d="m29.754 111.929.004 1.349-12.403 7.16-.003-1.349 5.613-3.241.002.675 1.174-.677-.002-.675z"></path><path fill="#616173" d="m17.352 119.089-1.458-.846 5.614-3.242 1.457.847z"></path><path fill="#4C4C5E" d="m17.355 120.438-1.457-.847-.004-1.348 1.458.846zM22.965 115.848l-1.457-.847-.066-23.175 1.458.847z"></path><path fill="#616173" d="m22.9 92.673-1.458-.847 1.174-.678 1.457.847z"></path><path fill="#474756" d="m24.073 91.995.066 23.176.002.675-1.174.677-.002-.675-.065-23.175z"></path><path fill="#C5D4DD" d="m53.21 73.79-4.077 39.684c-.063.616-.343 1.038-.735 1.211l-2.094.922c.393-.173.673-.599.736-1.214l4.073-39.685c.117-1.138-.55-2.499-1.49-3.041L23.335 56.488c-.43-.25-.842-.282-1.175-.136l2.093-.919c.333-.146.746-.113 1.175.134l26.29 15.178c.938.542 1.607 1.903 1.49 3.045z"></path><path fill="#E7F1F7" d="M49.624 71.666c.939.542 1.607 1.904 1.49 3.043l-4.074 39.685c-.117 1.137-.974 1.618-1.913 1.076l-26.29-15.178c-.938-.543-1.604-1.903-1.488-3.04l4.074-39.685c.117-1.14.973-1.621 1.912-1.079l26.289 15.178z"></path><path fill="#94ED96" d="m34.778 68.712-.007 12.511-9.758-6.245c.155-1.543.57-2.962 1.276-4.14 1.842-3.087 5.157-3.742 8.489-2.126z"></path><path fill="#85CDFD" d="M42.78 80.363c1.245 3.955 1.171 8.045-.487 10.823-1.967 3.294-5.609 3.823-9.16 1.772-1.26-.727-2.51-1.78-3.667-3.147-3.249-3.842-4.876-9.102-4.453-13.397l9.758 6.245 8.008-2.296z"></path><path fill="#EA3D5B" d="M37.01 67.756c1.26.727 2.508 1.778 3.663 3.142 1.668 1.971 2.91 4.32 3.666 6.715l-8.008 2.297.007-12.511c.224.109.448.228.672.357z"></path><g fill="#C5D4DD"><path d="m21.928 92.218-.715 6.971-1.501-.867.716-6.97zM25.483 88.2l-1.304 12.701-1.5-.866 1.304-12.702zM27.397 100.165l-.251 2.449-1.501-.866.252-2.449z"></path></g><g fill="#C5D4DD"><path d="m39.419 106.694-.174 1.696-7.53-4.348.174-1.696zM46.418 106.719l-.174 1.696-14.14-8.164.174-1.696zM44.811 101.78l-.174 1.696-12.144-7.012.174-1.696z"></path></g><g fill="#C5D4DD"><path d="M35.528 143.059c.06.094-.004.198-.153.248l-.511.175a.559.559 0 0 1-.432-.03l-1.373-.91a.555.555 0 0 0-.365-.063 9.164 9.164 0 0 1-.681.085c-.137.012-.25.069-.287.145l-.582 1.142c-.049.096-.208.158-.378.147l-.59-.035a.5.5 0 0 1-.216-.06c-.059-.034-.097-.08-.105-.13l-.17-1.188c-.008-.05-.046-.095-.105-.13a.447.447 0 0 0-.125-.046 7.332 7.332 0 0 1-.638-.166.57.57 0 0 0-.379.019l-1.64.714a.569.569 0 0 1-.456-.012l-.44-.233c-.128-.074-.15-.18-.062-.262l1.081-1.01c.072-.069.073-.154-.004-.222a3.153 3.153 0 0 1-.343-.352.241.241 0 0 0-.069-.056.52.52 0 0 0-.256-.06l-2.055.008a.519.519 0 0 1-.256-.06.206.206 0 0 1-.098-.107l-.114-.338c-.034-.097.056-.195.216-.232l1.91-.439c.13-.029.22-.098.225-.177a1.84 1.84 0 0 1 .085-.401c.022-.067-.017-.136-.1-.184a.378.378 0 0 0-.041-.02l-1.667-.703a.383.383 0 0 1-.043-.021c-.105-.061-.136-.155-.07-.235l.253-.31c.073-.09.248-.138.416-.111l1.988.307a.533.533 0 0 0 .364-.066 4.23 4.23 0 0 1 .477-.29c.102-.054.141-.137.098-.214l-.62-1.137c-.052-.096.02-.199.17-.246l.523-.161a.563.563 0 0 1 .419.036l1.316.949c.116.068.242.09.363.073.224-.033.453-.055.685-.068.136-.01.251-.063.297-.139l.665-1.126c.055-.094.218-.152.39-.138l.588.052a.49.49 0 0 1 .201.058c.062.036.101.085.105.139l.081 1.191c.004.053.043.103.106.14a.426.426 0 0 0 .111.043c.075.018.15.037.222.057a.564.564 0 0 0 .378-.028l1.587-.755a.572.572 0 0 1 .457 0l.455.221c.135.077.162.18.081.261l-1.004 1.038c-.066.07-.06.156.022.22.136.111.26.226.368.344a.255.255 0 0 0 .061.048c.071.041.17.063.271.06l2.055-.061c.104-.003.2.02.27.06.046.026.08.06.096.099l.142.335c.038.096-.045.196-.2.236l-1.878.487c-.125.032-.208.104-.21.184-.002.133-.02.268-.055.401-.016.065.023.129.101.174.017.01.036.019.056.027l1.72.66a.38.38 0 0 1 .055.026c.1.058.133.148.077.227l-.23.317c-.067.092-.239.142-.407.121l-2.011-.256a.505.505 0 0 0-.356.075 4.543 4.543 0 0 1-.45.299c-.104.058-.137.144-.09.22l.708 1.12zm-6.649-2.056c1.325.765 3.468.765 4.784 0 1.317-.765 1.308-2.005-.017-2.77-1.325-.766-3.466-.766-4.783-.001-1.316.765-1.31 2.006.016 2.77m9.162 13.916c.081.13-.007.274-.212.344l-.708.242a.777.777 0 0 1-.6-.044l-1.9-1.258a.773.773 0 0 0-.506-.088c-.31.054-.625.092-.943.12-.189.016-.343.095-.395.2l-.805 1.58c-.067.134-.288.219-.526.204l-.816-.05a.697.697 0 0 1-.3-.083c-.08-.046-.134-.11-.144-.18l-.235-1.642c-.01-.07-.063-.133-.144-.18a.597.597 0 0 0-.175-.064 10.284 10.284 0 0 1-.882-.23.793.793 0 0 0-.524.024l-2.272.991a.793.793 0 0 1-.632-.018l-.606-.32c-.179-.104-.21-.251-.09-.364l1.5-1.4c.1-.094.099-.213-.006-.306a4.263 4.263 0 0 1-.475-.487.343.343 0 0 0-.095-.078.711.711 0 0 0-.353-.083l-2.847.011a.712.712 0 0 1-.354-.084.292.292 0 0 1-.136-.147l-.16-.467c-.047-.136.081-.27.303-.322l2.645-.607c.175-.041.299-.137.31-.246.016-.186.056-.372.116-.555.032-.093-.022-.188-.137-.254a.542.542 0 0 0-.058-.03l-2.308-.97a.525.525 0 0 1-.059-.03c-.146-.084-.188-.214-.097-.326l.35-.43c.102-.124.345-.19.575-.153l2.755.424c.184.03.382-.006.504-.09a5.638 5.638 0 0 1 .66-.4c.14-.076.194-.192.136-.298l-.863-1.575c-.07-.131.03-.274.24-.339l.723-.224a.783.783 0 0 1 .582.05L29.898 146a.757.757 0 0 0 .498.1c.313-.043.63-.075.95-.093.19-.012.35-.086.412-.192l.921-1.558c.077-.131.304-.21.539-.191l.813.07c.11.01.205.039.278.081.086.05.14.118.146.192l.113 1.65c.006.072.059.14.146.19a.594.594 0 0 0 .156.061c.102.026.206.052.307.08.172.049.376.034.523-.037l2.195-1.048a.794.794 0 0 1 .632.003l.631.305c.188.107.224.248.116.362l-1.392 1.436c-.092.096-.085.216.028.304.191.154.361.313.511.477a.356.356 0 0 0 .084.066.723.723 0 0 0 .377.082l2.842-.083a.724.724 0 0 1 .376.084.3.3 0 0 1 .132.135l.195.463c.055.135-.061.274-.277.33l-2.597.672c-.173.045-.29.145-.292.255a2.428 2.428 0 0 1-.075.556c-.023.09.032.178.14.241a.55.55 0 0 0 .077.036l2.38.914c.028.01.053.023.076.036.14.08.185.206.107.314l-.32.439c-.091.128-.329.198-.561.168l-2.784-.355c-.184-.024-.38.016-.496.103-.19.145-.397.284-.622.415-.141.08-.187.198-.12.304l.978 1.551zm-9.203-2.846c1.834 1.06 4.797 1.06 6.62 0 1.823-1.06 1.813-2.776-.022-3.835-1.834-1.06-4.798-1.06-6.621 0-1.823 1.058-1.812 2.775.023 3.835"></path><path d="M20.732 147.688c.082.13-.006.275-.211.345l-.708.242a.781.781 0 0 1-.602-.044l-1.899-1.258a.773.773 0 0 0-.505-.088c-.31.054-.627.092-.944.12-.19.015-.344.094-.396.199l-.804 1.582c-.068.132-.287.218-.525.203l-.817-.05a.696.696 0 0 1-.299-.083c-.08-.046-.134-.11-.144-.18l-.237-1.643c-.01-.069-.061-.132-.143-.179a.597.597 0 0 0-.174-.064 10.646 10.646 0 0 1-.883-.23.793.793 0 0 0-.523.024l-2.273.99a.79.79 0 0 1-.63-.017l-.608-.322c-.178-.102-.21-.25-.088-.362l1.498-1.4c.1-.094.1-.213-.005-.306a4.21 4.21 0 0 1-.475-.487.35.35 0 0 0-.096-.078.717.717 0 0 0-.353-.084l-2.846.012a.72.72 0 0 1-.355-.084.292.292 0 0 1-.137-.148l-.159-.467c-.046-.135.08-.27.302-.321l2.645-.608c.177-.04.3-.136.311-.245.017-.186.057-.372.117-.555.032-.093-.023-.188-.137-.254a.539.539 0 0 0-.059-.03l-2.308-.971a.528.528 0 0 1-.06-.03c-.146-.084-.187-.214-.096-.325l.35-.43c.103-.124.345-.19.574-.154l2.756.425a.732.732 0 0 0 .503-.092 6.289 6.289 0 0 1 .66-.4c.14-.075.194-.19.136-.296l-.86-1.575c-.072-.131.028-.274.238-.339l.724-.224a.783.783 0 0 1 .582.05l1.82 1.314a.757.757 0 0 0 .5.1c.311-.043.63-.075.949-.093.19-.012.348-.087.41-.191l.921-1.56c.078-.13.304-.21.54-.19l.814.07c.108.01.204.038.277.08.086.05.14.118.146.193l.113 1.65c.006.072.06.14.147.19a.594.594 0 0 0 .155.061c.103.026.206.052.307.08a.78.78 0 0 0 .523-.037l2.196-1.048a.79.79 0 0 1 .632.003l.63.305c.189.107.224.248.115.36l-1.39 1.438c-.093.096-.085.216.028.304.19.154.36.313.51.477a.356.356 0 0 0 .085.066.723.723 0 0 0 .376.082l2.842-.084a.731.731 0 0 1 .377.085.3.3 0 0 1 .132.135l.195.463c.055.135-.061.274-.278.328l-2.596.674c-.175.046-.29.145-.292.255a2.43 2.43 0 0 1-.076.556c-.023.09.032.178.141.24a.55.55 0 0 0 .077.037l2.378.913c.028.011.053.023.076.036.141.081.186.206.109.315l-.32.439c-.093.127-.33.198-.561.168l-2.784-.355c-.187-.024-.381.016-.496.103a6.07 6.07 0 0 1-.622.415c-.141.08-.189.197-.121.304l.978 1.55zm-9.203-2.845c1.834 1.058 4.798 1.06 6.62 0 1.824-1.06 1.813-2.777-.02-3.835-1.835-1.06-4.801-1.061-6.624-.002-1.823 1.06-1.81 2.777.024 3.837"></path></g></svg>