<svg xmlns="http://www.w3.org/2000/svg" enable-background="new 0 0 512 512" viewBox="0 0 512 512" id="checklist"><path fill="#988fc4" d="M237.876,406.052c2.955-9.025,9.273-16.352,17.333-20.1c7.331-3.408,15.449-3.638,22.856-0.643l20.291,8.198
		l-5.869-14.609h-200.4c-5.523,0-10-4.478-10-10V66.107c0-5.523,4.477-10,10-10h209.109c5.522,0,10,4.477,10,10v217.922
		l8.375,20.849l33.447-10.181V66.107c0-28.575-23.247-51.822-51.822-51.822H92.087c-28.575,0-51.822,23.247-51.822,51.822v302.791
		c0,28.574,23.248,51.821,51.822,51.821h145.736C236.336,416.164,236.248,411.028,237.876,406.052z"></path><rect width="10" height="10" x="144.133" y="275.634" fill="#f5f5fc"></rect><path fill="#f5f5fc" d="M301.196,56.107H92.087c-5.523,0-10,4.477-10,10v302.791c0,5.522,4.477,10,10,10h200.4l-35.456-88.265h-58.207
		c-5.523,0-10-4.478-10-10s4.477-10,10-10h50.173l-6.677-16.623c-3.74-9.31-2.467-19.67,2.594-27.511h-46.09
		c-5.523,0-10-4.477-10-10s4.477-10,10-10h65c5.178,0,9.437,3.936,9.948,8.979c0.266,0.086,0.532,0.169,0.797,0.264
		c6.835,2.466,12.403,7.982,15.275,15.133l21.352,53.152V66.107C311.196,60.584,306.719,56.107,301.196,56.107z M151.319,236.567
		c-1.953,1.952-4.512,2.929-7.071,2.929s-5.118-0.976-7.071-2.929l-14.788-14.788c-3.905-3.905-3.906-10.237,0-14.142
		s10.237-3.906,14.142,0l7.717,7.717l18.919-18.919c3.905-3.905,10.237-3.905,14.143,0c3.905,3.905,3.905,10.237,0,14.143
		L151.319,236.567z M174.133,270.634v20c0,8.271-6.729,15-15,15h-20c-8.271,0-15-6.729-15-15v-20c0-8.271,6.729-15,15-15h20
		C167.404,255.634,174.133,262.362,174.133,270.634z M177.31,146.444l-25.99,25.99c-1.953,1.953-4.512,2.929-7.071,2.929
		s-5.119-0.976-7.071-2.929l-14.788-14.788c-3.905-3.905-3.905-10.237,0-14.143c3.905-3.905,10.237-3.905,14.143,0l7.717,7.717
		l18.919-18.919c3.905-3.905,10.237-3.905,14.143,0C181.214,136.207,181.214,142.539,177.31,146.444z M263.824,162.368h-65
		c-5.523,0-10-4.477-10-10s4.477-10,10-10h65c5.522,0,10,4.477,10,10S269.347,162.368,263.824,162.368z"></path><path fill="#de8bae" d="M177.31 196.434c-3.905-3.905-10.237-3.905-14.143 0l-18.919 18.919-7.717-7.717c-3.905-3.905-10.237-3.905-14.142 0s-3.905 10.237 0 14.142l14.788 14.788c1.953 1.953 4.512 2.929 7.071 2.929s5.119-.977 7.071-2.929l25.99-25.99C181.214 206.671 181.214 200.339 177.31 196.434zM263.824 206.5h-65c-5.523 0-10 4.477-10 10s4.477 10 10 10h46.09c2.444-3.786 5.766-6.988 9.843-9.194 5.975-3.235 12.694-3.87 19.016-1.826C273.261 210.436 269.002 206.5 263.824 206.5zM177.31 132.301c-3.905-3.905-10.237-3.905-14.143 0l-18.919 18.919-7.717-7.717c-3.905-3.905-10.237-3.905-14.143 0-3.905 3.905-3.905 10.237 0 14.143l14.788 14.788c1.953 1.953 4.512 2.929 7.071 2.929s5.119-.976 7.071-2.929l25.99-25.99C181.214 142.539 181.214 136.207 177.31 132.301zM263.824 142.368h-65c-5.523 0-10 4.477-10 10s4.477 10 10 10h65c5.522 0 10-4.477 10-10S269.347 142.368 263.824 142.368zM188.824 280.634c0 5.522 4.477 10 10 10h58.207l-8.034-20h-50.173C193.301 270.634 188.824 275.111 188.824 280.634zM139.133 255.634c-8.271 0-15 6.729-15 15v20c0 8.271 6.729 15 15 15h20c8.271 0 15-6.729 15-15v-20c0-8.271-6.729-15-15-15H139.133zM154.133 285.634h-10v-10h10V285.634z"></path><path fill="#a3d4ff" d="M470.422,417.043l-10.467-26.057c1.895,4.716-0.05,10.103-4.519,12.521l-115.864,62.718
		c-1.48,0.801-3.118,1.206-4.761,1.206c-1.271,0-2.544-0.242-3.75-0.729l-3.943-1.595l8.882,22.11
		c1.811,4.506,5.355,7.995,9.727,9.572c1.698,0.613,3.476,0.917,5.251,0.917c2.565,0,5.126-0.635,7.438-1.885l104.44-56.534
		c0,0,0,0,0.001,0C470.455,435.172,473.778,425.401,470.422,417.043z"></path><path fill="#ffddcf" d="M334.812,467.432c1.643,0,3.28-0.405,4.761-1.206l115.864-62.718c4.469-2.419,6.413-7.806,4.519-12.521
		l-35.431-88.2c-6.192-15.414-21.563-23.297-36.556-18.729l-34.95,10.639l-33.447,10.181l-8.375-20.849l-21.352-53.152
		c-2.872-7.15-8.44-12.667-15.275-15.133c-0.264-0.095-0.531-0.178-0.797-0.264c-6.322-2.043-13.041-1.409-19.016,1.826
		c-4.077,2.207-7.399,5.408-9.843,9.194c-5.061,7.841-6.334,18.201-2.594,27.511l6.677,16.623l8.034,20l35.456,88.265l5.869,14.609
		l-20.291-8.198c-7.407-2.995-15.525-2.766-22.856,0.643c-8.06,3.748-14.378,11.074-17.333,20.1
		c-1.629,4.976-1.54,10.112-0.053,14.668c1.912,5.856,6.136,10.754,11.997,13.123l77.297,31.264l3.943,1.595
		C332.268,467.189,333.541,467.432,334.812,467.432z"></path></svg>