<svg xmlns="http://www.w3.org/2000/svg" enable-background="new 0 0 512 512" viewBox="0 0 512 512" id="partners"><path fill="#ffda00" d="M234 33.6c-1.3 0-2.6-.5-3.5-1.5-.2-.2-.4-.5-.6-.8s-.3-.6-.5-.9c-.1-.3-.2-.6-.3-.9-.1-.3-.1-.6-.1-1 0-.3 0-.6.1-1 .1-.3.2-.6.3-.9.1-.3.3-.6.5-.9.2-.3.4-.5.6-.8.9-.9 2.2-1.5 3.5-1.5 1.3 0 2.6.5 3.5 1.5.9.9 1.5 2.2 1.5 3.5 0 .3 0 .7-.1 1-.1.3-.2.6-.3.9-.1.3-.3.6-.5.9-.2.3-.4.5-.6.8C236.6 33.1 235.3 33.6 234 33.6zM156.8 98.3c-2.6-.9-4-3.8-3.1-6.4l0 0c.9-2.6 3.8-4 6.4-3.1l0 0c2.6.9 4 3.8 3.1 6.4l0 0c-.7 2.1-2.6 3.4-4.7 3.4l0 0C157.9 98.6 157.3 98.5 156.8 98.3zM162 84.3c-2.4-1.3-3.4-4.3-2.1-6.8l0 0c1.3-2.4 4.3-3.4 6.8-2.1l0 0c2.4 1.3 3.4 4.3 2.1 6.8l0 0 0 0 0 0c-.9 1.7-2.6 2.7-4.4 2.7l0 0C163.6 84.9 162.8 84.7 162 84.3zM169.3 71.3c-2.2-1.6-2.7-4.8-1.1-7l0 0c1.6-2.2 4.8-2.7 7-1l0 0c2.2 1.6 2.7 4.8 1.1 7l0 0c-1 1.3-2.5 2-4 2l0 0C171.3 72.3 170.2 72 169.3 71.3zM178.5 59.5c-2-2-2-5.1 0-7.1l0 0c1.9-2 5.1-2 7.1 0l0 0c1.9 2 1.9 5.1 0 7.1l0 0c-1 1-2.3 1.5-3.5 1.5l0 0C180.7 61 179.4 60.5 178.5 59.5zM189.3 49.2c-1.6-2.2-1.2-5.3 1.1-7l0 0c2.2-1.6 5.4-1.2 7 1.1l0 0c1.6 2.2 1.2 5.3-1.1 7l0 0c-.9.7-1.9 1-3 1l0 0C191.8 51.3 190.3 50.6 189.3 49.2zM201.5 40.7c-1.3-2.5-.4-5.5 2.1-6.8l0 0c2.4-1.3 5.5-.3 6.8 2.1l0 0c1.3 2.4.4 5.5-2.1 6.8l0 0 0 0 0 0c-.8.4-1.5.6-2.3.6l0 0C204.1 43.4 202.4 42.4 201.5 40.7zM214.9 34.1c-.9-2.6.5-5.5 3.1-6.4l0 0c2.6-.9 5.5.5 6.4 3.1l0 0c.9 2.6-.5 5.5-3.1 6.4l0 0 0 0 0 0c-.5.2-1.1.3-1.6.3l0 0C217.5 37.4 215.6 36.1 214.9 34.1zM154.6 113c-1.3 0-2.6-.5-3.5-1.5-.2-.2-.4-.5-.6-.8-.2-.3-.3-.6-.5-.9-.1-.3-.2-.6-.3-.9s-.1-.7-.1-1 0-.7.1-1c.1-.3.2-.6.3-.9.1-.3.3-.6.5-.9.2-.3.4-.5.6-.8 1.2-1.2 2.9-1.7 4.5-1.4.3.1.6.2.9.3.3.1.6.3.9.5s.5.4.8.6.4.5.6.8c.2.3.3.6.5.9.1.3.2.6.3.9.1.3.1.7.1 1s0 .7-.1 1c-.1.3-.2.6-.3.9-.1.3-.3.6-.5.9-.2.3-.4.5-.6.8s-.5.4-.8.6c-.3.2-.6.3-.9.5-.3.1-.6.2-.9.3C155.3 113 155 113 154.6 113zM349.4 113c-.3 0-.7 0-1-.1-.3-.1-.6-.2-.9-.3-.3-.1-.6-.3-.9-.5-.3-.2-.5-.4-.8-.6-.9-.9-1.5-2.2-1.5-3.5 0-.3 0-.7.1-1 .1-.3.2-.6.3-.9.1-.3.3-.6.5-.9.2-.3.4-.5.6-.8.2-.2.5-.4.8-.6.3-.2.6-.3.9-.5.3-.1.6-.2.9-.3.6-.1 1.3-.1 2 0 .3.1.6.2.9.3.3.1.6.3.9.5.3.2.5.4.8.6s.4.5.6.8c.2.3.3.6.5.9.1.3.2.6.3.9.1.3.1.7.1 1 0 1.3-.5 2.6-1.5 3.5-.2.2-.5.4-.8.6-.3.2-.6.3-.9.5-.3.1-.6.2-.9.3C350 113 349.7 113 349.4 113zM340.9 95.2L340.9 95.2 340.9 95.2c-.9-2.6.5-5.4 3.1-6.4l0 0c2.6-.9 5.5.5 6.4 3.1l0 0c.9 2.6-.5 5.5-3.1 6.4l0 0c-.5.2-1.1.3-1.6.3l0 0C343.5 98.6 341.6 97.3 340.9 95.2zM335.2 82.3c-1.3-2.4-.4-5.5 2.1-6.8l0 0c2.4-1.3 5.5-.3 6.8 2.1l0 0c1.3 2.4.4 5.5-2.1 6.8l0 0c-.7.4-1.5.6-2.3.6l0 0C337.9 84.9 336.1 83.9 335.2 82.3zM327.7 70.3c-1.6-2.2-1.2-5.3 1.1-7l0 0c2.2-1.6 5.4-1.2 7 1.1l0 0c1.6 2.2 1.2 5.3-1.1 7l0 0c-.9.7-1.9 1-3 1l0 0C330.2 72.3 328.7 71.6 327.7 70.3zM318.5 59.5L318.5 59.5 318.5 59.5c-2-2-2-5.1 0-7.1l0 0c2-2 5.1-2 7.1 0l0 0c2 2 2 5.1 0 7.1l0 0c-1 1-2.3 1.5-3.5 1.5l0 0C320.7 61 319.5 60.5 318.5 59.5zM307.8 50.3c-2.2-1.6-2.7-4.8-1.1-7l0 0c1.6-2.2 4.8-2.7 7-1l0 0c2.2 1.6 2.7 4.8 1.1 7l0 0c-1 1.3-2.5 2-4 2l0 0C309.7 51.3 308.6 51 307.8 50.3zM295.8 42.8c-2.4-1.3-3.4-4.3-2.1-6.8l0 0c1.3-2.4 4.3-3.4 6.8-2.1l0 0c2.4 1.3 3.4 4.3 2.1 6.8l0 0c-.9 1.7-2.6 2.7-4.4 2.7l0 0C297.3 43.4 296.5 43.2 295.8 42.8zM282.8 37.2c-2.6-.9-4-3.8-3.1-6.4l0 0c.9-2.6 3.8-4 6.4-3.1l0 0c2.6.9 4 3.8 3.1 6.4l0 0c-.7 2.1-2.6 3.4-4.7 3.4l0 0C283.9 37.4 283.3 37.3 282.8 37.2zM270 33.6c-.3 0-.6 0-1-.1-.3-.1-.6-.2-.9-.3-.3-.1-.6-.3-.9-.5s-.5-.4-.8-.6c-.9-.9-1.5-2.2-1.5-3.5 0-.3 0-.6.1-1 .1-.3.2-.6.3-.9.1-.3.3-.6.5-.9.2-.3.4-.5.6-.8.2-.2.5-.4.8-.6.3-.2.6-.3.9-.5.3-.1.6-.2.9-.3 1.6-.3 3.4.2 4.5 1.4.2.2.4.5.6.8.2.3.3.6.5.9.1.3.2.6.3.9.1.3.1.6.1 1 0 1.3-.5 2.6-1.5 3.5C272.6 33.1 271.3 33.6 270 33.6zM369 428c-1.3 0-2.7 0-4-.1-2.8-.1-4.9-2.4-4.8-5.2.1-2.8 2.4-5 5.2-4.8 3.2.1 6.4.1 9.6-.1 2.8-.1 5.1 2 5.3 4.7s-2 5.1-4.7 5.3C373.3 427.9 371.1 428 369 428zM345.3 425.6c-.3 0-.7 0-1-.1-3.4-.7-6.8-1.6-10.1-2.5-2.6-.8-4.2-3.6-3.4-6.2.8-2.6 3.6-4.1 6.2-3.4 3 .9 6.2 1.7 9.3 2.3 2.7.6 4.4 3.2 3.9 5.9C349.7 424 347.6 425.6 345.3 425.6zM317 415.9c-.7 0-1.5-.2-2.2-.5-3.1-1.5-6.2-3.2-9.1-5-2.4-1.4-3.1-4.5-1.7-6.9 1.4-2.4 4.5-3.1 6.9-1.7 2.7 1.6 5.5 3.2 8.4 4.6 2.5 1.2 3.5 4.2 2.3 6.7C320.6 414.8 318.9 415.9 317 415.9zM292.2 399.2c-1.2 0-2.3-.4-3.3-1.2-2.6-2.3-5.2-4.7-7.6-7.2-1.9-2-1.9-5.1.1-7.1 2-1.9 5.1-1.9 7.1.1 2.2 2.3 4.5 4.5 6.9 6.6 2.1 1.8 2.3 5 .5 7.1C295 398.7 293.6 399.2 292.2 399.2zM272.3 376.9c-1.6 0-3.2-.8-4.1-2.2-2-2.9-3.8-5.8-5.5-8.9-1.4-2.4-.5-5.5 1.9-6.8 2.4-1.4 5.5-.5 6.8 1.9 1.6 2.8 3.3 5.5 5.1 8.1 1.6 2.3 1 5.4-1.3 6.9C274.3 376.6 273.3 376.9 272.3 376.9zM258.7 350.2c-2.1 0-4-1.3-4.7-3.3-1.2-3.3-2.2-6.6-3.1-10-.7-2.7.9-5.4 3.6-6.1 2.7-.7 5.4.9 6.1 3.6.8 3.1 1.8 6.1 2.8 9.1.9 2.6-.4 5.5-3 6.4C259.9 350.1 259.3 350.2 258.7 350.2zM252.4 321c-2.6 0-4.8-2-5-4.6-.3-3.4-.4-6.9-.4-10.4 0-2.8 2.2-5 5-5s5 2.2 5 5c0 3.2.1 6.4.4 9.6.2 2.8-1.8 5.2-4.6 5.4C252.7 321 252.6 321 252.4 321z"></path><path fill="#ffda00" d="M135,428c-2.1,0-4.3-0.1-6.4-0.2c-2.8-0.1-4.9-2.5-4.7-5.3c0.1-2.8,2.5-4.9,5.3-4.7c3.2,0.2,6.4,0.2,9.6,0.1
			c2.8-0.1,5.1,2.1,5.2,4.8s-2.1,5.1-4.8,5.2C137.7,428,136.3,428,135,428z M158.7,425.6c-2.3,0-4.4-1.6-4.9-4
			c-0.6-2.7,1.2-5.3,3.9-5.9c3.1-0.6,6.2-1.4,9.3-2.3c2.6-0.8,5.4,0.7,6.2,3.4c0.8,2.6-0.7,5.4-3.4,6.2c-3.3,1-6.7,1.8-10.1,2.5
			C159.4,425.6,159,425.6,158.7,425.6z M187,415.9c-1.8,0-3.6-1-4.5-2.8c-1.2-2.5-0.2-5.5,2.3-6.7c2.8-1.4,5.7-3,8.4-4.6
			c2.4-1.4,5.4-0.7,6.9,1.7c1.4,2.4,0.7,5.4-1.7,6.9c-3,1.8-6,3.5-9.1,5C188.5,415.7,187.7,415.9,187,415.9z M211.8,399.2
			c-1.4,0-2.8-0.6-3.8-1.7c-1.8-2.1-1.6-5.2,0.5-7.1c2.4-2.1,4.7-4.3,6.9-6.6c1.9-2,5.1-2,7.1-0.1c2,1.9,2,5.1,0.1,7.1
			c-2.4,2.5-4.9,4.9-7.6,7.2C214.2,398.8,213,399.2,211.8,399.2z M231.7,376.9c-1,0-2-0.3-2.8-0.9c-2.3-1.6-2.9-4.7-1.3-6.9
			c1.8-2.6,3.5-5.4,5.1-8.1c1.4-2.4,4.4-3.3,6.8-1.9c2.4,1.4,3.3,4.4,1.9,6.8c-1.7,3-3.6,6-5.5,8.9
			C234.9,376.1,233.3,376.9,231.7,376.9z M245.3,350.2c-0.6,0-1.1-0.1-1.7-0.3c-2.6-0.9-4-3.8-3-6.4c1.1-3,2-6.1,2.8-9.1
			c0.7-2.7,3.4-4.3,6.1-3.6c2.7,0.7,4.3,3.4,3.6,6.1c-0.9,3.3-1.9,6.7-3.1,10C249.2,348.9,247.3,350.2,245.3,350.2z M251.6,321
			c-0.1,0-0.3,0-0.4,0c-2.8-0.2-4.8-2.7-4.6-5.4c0.3-3.2,0.4-6.4,0.4-9.6c0-2.8,2.2-5,5-5s5,2.2,5,5c0,3.5-0.1,7-0.4,10.4
			C256.3,319,254.2,321,251.6,321z"></path><path fill="#494949" d="M252 32c-2.8 0-5-2.2-5-5V9c0-2.8 2.2-5 5-5s5 2.2 5 5v18C257 29.8 254.8 32 252 32zM69.7 274.5c-21.8 0-39.5-17.7-39.5-39.5 0-21.8 17.7-39.5 39.5-39.5 21.8 0 39.5 17.7 39.5 39.5C109.2 256.8 91.5 274.5 69.7 274.5zM69.7 205.5c-16.3 0-29.5 13.2-29.5 29.5s13.2 29.5 29.5 29.5 29.5-13.2 29.5-29.5S86 205.5 69.7 205.5z"></path><path fill="#494949" d="M142.4,509h-25.2c-2.2,0-4.2-1.5-4.8-3.6l-26.1-92.2l-11.5,91.4c-0.3,2.5-2.4,4.4-5,4.4H42.2
			c-1.4,0-2.7-0.6-3.6-1.6c-0.9-1-1.4-2.3-1.4-3.7L44,379.9l-3.5-42.5l-5.8,34.5c-1.2,7.5-7.7,12.9-15.2,12.9
			c-4.4,0-8.7-1.9-11.6-5.2c-2.9-3.3-4.3-7.7-3.7-12.1L14.9,282c1.2-9.9,10.4-18,20.4-18c0,0,0,0,0,0l62.1,0.5
			c9.7,0,19.2,1.6,28.4,4.6l24.8,8.3l25.6-35.9c2.5-3.5,6.5-5.8,10.8-6.1c4.3-0.4,8.6,1.2,11.6,4.3c5,5,5.7,12.8,1.8,18.6l-37,55.4
			c-1.3,1.9-3.6,2.7-5.7,2L123,304v75.3L147.3,503c0.3,1.5-0.1,3-1,4.1S143.9,509,142.4,509z M121,499h15.3l-23.2-118.2
			c-0.1-0.3-0.1-0.6-0.1-1v-82.8c0-1.6,0.8-3.1,2.1-4.1c1.3-0.9,3-1.2,4.5-0.7l37.8,12.6l34.8-52.2c1.3-1.9,1-4.4-0.6-6
			c-1.4-1.4-2.9-1.4-3.8-1.4c-0.8,0.1-2.4,0.4-3.5,2l-27.8,38.9c-1.3,1.8-3.6,2.5-5.6,1.8l-28.3-9.4c-8.2-2.7-16.7-4.1-25.3-4.1
			L35.2,274c-5,0-9.8,4.2-10.5,9.3l-10.7,85.5c-0.2,1.6,0.3,3.1,1.3,4.3c1,1.2,2.5,1.8,4.1,1.8c2.7,0,4.9-1.9,5.4-4.6l12.3-74
			c0.4-2.5,2.6-4.3,5.1-4.2c2.5,0.1,4.6,2.1,4.8,4.6l6.9,82.8c0,0.2,0,0.5,0,0.7L47.4,499h17.9l14.1-111.4c0.3-2.4,2.2-4.2,4.6-4.4
			c2.4-0.2,4.5,1.3,5.2,3.6L121,499z"></path><g><path fill="#494949" d="M443.3,274.5c-21.8,0-39.5-17.7-39.5-39.5c0-21.8,17.7-39.5,39.5-39.5s39.5,17.7,39.5,39.5
			C482.7,256.8,465,274.5,443.3,274.5z M443.3,205.5c-16.3,0-29.5,13.2-29.5,29.5s13.2,29.5,29.5,29.5s29.5-13.2,29.5-29.5
			S459.5,205.5,443.3,205.5z"></path><path fill="#494949" d="M470.8,509h-27.6c-2.5,0-4.6-1.9-5-4.4l-11.5-91.4l-26.1,92.2c-0.6,2.2-2.6,3.6-4.8,3.6h-25.2
			c-1.5,0-2.9-0.7-3.9-1.8c-0.9-1.2-1.3-2.7-1-4.1L390,379.4V304l-34.8,11.6c-0.7,0.2-1.5,0.3-2.3,0.2l-52.4-7.4
			c-4.3-0.6-8.1-2.9-10.6-6.4c-2.6-3.5-3.6-7.8-2.8-12.1c1.5-8.5,9.3-14.2,17.8-13l49.6,6.8l32.3-14.4c0.2-0.1,0.3-0.1,0.5-0.2
			c9.2-3.1,18.8-4.6,28.5-4.6l62-0.5c10,0,19.2,8.1,20.4,18l10.7,85.5c0.5,4.4-0.8,8.8-3.8,12.1c-2.9,3.3-7.2,5.2-11.6,5.2
			c-7.6,0-14-5.4-15.2-12.9l-5.8-34.5l-3.5,42.5l6.9,123.8c0.1,1.4-0.4,2.7-1.4,3.7C473.5,508.4,472.2,509,470.8,509z M447.7,499
			h17.9L459,380.1c0-0.2,0-0.5,0-0.7l6.9-82.8c0.2-2.5,2.3-4.5,4.8-4.6c2.5-0.1,4.7,1.7,5.1,4.2l12.3,74c0.4,2.6,2.7,4.6,5.4,4.6
			c1.6,0,3-0.7,4.1-1.8c1-1.2,1.5-2.7,1.3-4.3l-10.7-85.5c-0.6-5-5.4-9.3-10.5-9.3l-62,0.5c-8.6,0-17,1.4-25.1,4l-33.3,14.9
			c-0.9,0.4-1.8,0.5-2.7,0.4l-51-7c-3.2-0.4-6.1,1.7-6.6,4.8c-0.3,1.6,0.1,3.2,1,4.5s2.4,2.2,4,2.4l51.3,7.2l40.3-13.4
			c1.5-0.5,3.2-0.3,4.5,0.7c1.3,0.9,2.1,2.4,2.1,4.1v82.8c0,0.3,0,0.6-0.1,1L376.7,499H392l31.8-112.2c0.6-2.3,2.8-3.8,5.2-3.6
			c2.4,0.2,4.3,2,4.6,4.4L447.7,499z"></path></g><g><path fill="#494949" d="M229.9,278c-2.7,0-5-2.2-5-4.9c0-2.8,2.2-5,4.9-5.1l42.1-0.5c0,0,0,0,0.1,0c2.7,0,5,2.2,5,4.9
		c0,2.8-2.2,5-4.9,5.1L229.9,278C229.9,278,229.9,278,229.9,278z"></path></g><g><path fill="#494949" d="M233.7,291.5c-2.7,0-5-2.2-5-4.9c0-2.8,2.2-5,4.9-5.1l34.4-0.4c2.8,0,5,2.2,5.1,4.9s-2.2,5-4.9,5.1
		L233.7,291.5C233.7,291.5,233.7,291.5,233.7,291.5z"></path></g><g><path fill="#494949" d="M237.1,304.8c-2.7,0-5-2.2-5-4.9c0-2.8,2.2-5,4.9-5.1l27.6-0.3c2.8,0,5,2.2,5.1,4.9s-2.2,5-4.9,5.1
		L237.1,304.8C237.2,304.8,237.1,304.8,237.1,304.8z"></path></g><path fill="#ffda00" d="M190.4,181.7c2.7,3,5.7,5.9,8.8,8.5c8.4,12,22.9,34.9,23.7,52.2c0,0,1.8,15.2,20.8,15.2h15.7
	c19,0,20.8-15.2,20.8-15.2c0.9-18.4,17.2-43.3,25.3-54.5c16.6-14.9,27-36.5,27-60.6c0-45-36.5-81.5-81.5-81.5c-0.8,0-1.7,0-2.5,0
	c-15.7,0.5-30.3,5.4-42.6,13.6c-11.3,7.5-20.6,17.8-27,29.9c-6,11.4-9.4,24.3-9.4,38C169.5,148.1,177.4,167.2,190.4,181.7"></path><g><path fill="#494949" d="M264.5,240.7h-25c-2.7,0-4.9-2.2-5-4.9c-0.7-25-4.2-39.9-9.2-54.6c-4.6-13.7-10.6-29.3-17.6-46.3
		c-0.6-1.5-0.5-3.3,0.5-4.7c0.9-1.4,2.5-2.2,4.2-2.2c0.5,0,1,0,1.4,0.1c0,0,0.1,0,0.2,0c5.7,0,7.8-0.8,8.5-1.2
		c0.9-0.5,2.9-1.9,6.2-5.9c0.9-1.2,2.4-1.8,3.9-1.8c0,0,0,0,0,0c1.5,0,2.9,0.7,3.9,1.9c3.3,4,5.3,5.4,6.2,5.9
		c0.7,0.4,2.8,1.2,8.5,1.2c5.5,0,7.6-0.8,8.2-1.1c0.9-0.5,2.9-1.8,6.1-5.7c1-1.2,2.4-1.8,3.9-1.8c1.5,0,2.9,0.7,3.9,1.9
		c3.3,4.2,5.3,5.7,6.2,6.2c0.7,0.4,2.8,1.2,8.6,1.2c0.1,0,0.1,0,0.2,0c0.4,0,0.8-0.1,1.3-0.1c1.7,0,3.2,0.8,4.2,2.2
		c0.9,1.4,1.1,3.1,0.5,4.7c-7,16.9-12.9,32.4-17.5,45.9c-4.4,12.9-6.3,27.5-7.1,54.2C269.4,238.6,267.2,240.7,264.5,240.7z
		 M244.3,230.7h15.4c0.9-24.8,3-39.2,7.4-52.3c4.1-11.9,9.1-25.3,15-39.8c-3.2-0.4-5.7-1.1-7.6-2.2c-1.7-1-3.5-2.4-5.4-4.3
		c-1.8,1.8-3.6,3-5.2,3.9c-2.9,1.5-7.1,2.2-12.8,2.2c-5.9,0-10.2-0.8-13.2-2.4c-1.7-0.9-3.5-2.3-5.3-4.1c-1.9,1.8-3.6,3.2-5.3,4.1
		c-1.9,1-4.4,1.7-7.4,2.1c5.9,14.6,11,28.1,15.1,40.2C239.7,192.6,243.2,207.3,244.3,230.7z"></path></g><g><path fill="#494949" d="M369,131h-18c-2.8,0-5-2.2-5-5s2.2-5,5-5h18c2.8,0,5,2.2,5,5S371.8,131,369,131z"></path></g><g><path fill="#494949" d="M153,131h-18c-2.8,0-5-2.2-5-5s2.2-5,5-5h18c2.8,0,5,2.2,5,5S155.8,131,153,131z"></path></g></svg>