<svg xmlns="http://www.w3.org/2000/svg" enable-background="new 0 0 67 67" viewBox="0 0 67 67" id="team"><path fill="#FFF" d="M46.47362,9.38798c0,3.26248,2.64211,5.90459,5.89904,5.90459c3.26248,0,5.90456-2.64211,5.90456-5.90459
		c0-3.26241-2.64208-5.90452-5.90456-5.90452C49.11573,3.48346,46.47362,6.12557,46.47362,9.38798z"></path><path fill="#BDD7F0" d="M41.60306,30.76884V27.0857c0-4.90937,3.98413-8.87895,8.87895-8.87895h0.08538l3.11615,4.17006
			l3.11616-4.17006h0.0569c4.90906,0,8.89318,3.96957,8.89318,8.87895v3.68314H41.60306z"></path><path fill="#FFF" d="M7.92129,9.38798c0,3.26248,2.64211,5.90459,5.89905,5.90459c3.26248,0,5.90456-2.64211,5.90456-5.90459
		c0-3.26241-2.64208-5.90452-5.90456-5.90452C10.5634,3.48346,7.92129,6.12557,7.92129,9.38798z"></path><path fill="#48A0D9" d="M3.05074,30.76884V27.0857c0-4.90937,3.98413-8.87895,8.87895-8.87895h0.08537l3.11616,4.17006
			l3.11616-4.17006h0.05689c4.90906,0,8.89319,3.96957,8.89319,8.87895v3.68314H3.05074z"></path><path fill="#FFF" d="M25.66526 9.03522c0 4.02537 3.25994 7.28532 7.27848 7.28532 4.02538 0 7.28527-3.25994 7.28527-7.28532 0-4.02529-3.2599-7.28523-7.28527-7.28523C28.92521 1.74999 25.66526 5.00993 25.66526 9.03522zM18.05057 29.40902v6.07444h29.79314v-6.07444c0-6.0573-4.91577-10.95517-10.97274-10.95517h-.07019l-3.84485 5.14508-3.84485-5.14508h-.10534C22.96634 18.45385 18.05057 23.35172 18.05057 29.40902z"></path><path fill="#F6968A" d="M49.44779,30.8708v4.53998H19.65781V30.8708c0-6.06,4.91998-10.96002,10.95996-10.96002h0.10004
			l3.84998,5.15002l3.84003-5.15002h0.06995C44.53776,19.91078,49.44779,24.8108,49.44779,30.8708z"></path><path fill="#FFF" d="M38.20762,45.8413v0.02202c0,2.46378-1.99083,4.45454-4.45461,4.45454
		c-1.23189,0-2.35382-0.49491-3.15673-1.30883c-0.80298-0.80291-1.30889-1.91383-1.30889-3.14572V45.8413
		c0-2.46378,2.00184-4.45454,4.46562-4.45454c1.23189,0,2.34281,0.4949,3.14572,1.30882
		C37.71265,43.49849,38.20762,44.60941,38.20762,45.8413z"></path><path fill="#BDD7F0" d="M39.01292,46.9924v0.02202c0,2.46378-1.99083,4.45454-4.45461,4.45454
			c-1.23189,0-2.35382-0.49491-3.15673-1.30883c-0.80298-0.80291-1.30889-1.91383-1.30889-3.14572V46.9924
			c0-2.46378,2.00184-4.45454,4.46562-4.45454c1.23189,0,2.34281,0.4949,3.14572,1.30883
			C38.51794,44.64959,39.01292,45.76051,39.01292,46.9924z"></path><rect width="8.107" height="8.12" x="57.643" y="57.633" fill="#3EBDA7"></rect><rect width="8.107" height="8.12" x="30.728" y="57.633" fill="#F6968A"></rect><rect width="8.107" height="8.12" x="2.782" y="57.506" fill="#BDD7F0"></rect><g><path fill="#223059" d="M52.37247 15.79661c3.53003 0 6.41003-2.87988 6.41003-6.40991s-2.88-6.40015-6.41003-6.40015c-3.52997 0-6.39996 2.87012-6.39996 6.40015S48.8425 15.79661 52.37247 15.79661zM52.37247 3.98655c2.98004 0 5.41003 2.42017 5.41003 5.40015s-2.42999 5.40991-5.41003 5.40991c-2.97998 0-5.39996-2.42993-5.39996-5.40991S49.39249 3.98655 52.37247 3.98655zM13.82248 15.79661c3.53003 0 6.40003-2.87988 6.40003-6.40991s-2.87-6.40015-6.40003-6.40015S7.42246 5.85667 7.42246 9.3867 10.29245 15.79661 13.82248 15.79661zM13.82248 3.98655c2.97998 0 5.40003 2.42017 5.40003 5.40015s-2.42004 5.40991-5.40003 5.40991S8.42246 12.36668 8.42246 9.3867 10.8425 3.98655 13.82248 3.98655zM32.94248 16.81663c4.28998 0 7.78998-3.48999 7.78998-7.78003s-3.5-7.79004-7.78998-7.79004-7.77997 3.5-7.77997 7.79004S28.6525 16.81663 32.94248 16.81663zM32.94248 2.24656c3.73999 0 6.78998 3.05005 6.78998 6.79004s-3.04999 6.78003-6.78998 6.78003-6.77997-3.04004-6.77997-6.78003S29.20249 2.24656 32.94248 2.24656z"></path><path fill="#223059" d="M61.20249,55.74656V45.35667l-22.53003-0.05005c-0.25068-2.36071-2.13956-4.16012-4.41998-4.3999v-4.92017
			H47.8425c0.27997,0,0.5-0.22998,0.5-0.5v-4.16284h16.10596c0.27637,0,0.5-0.22363,0.5-0.5v-4.92334
			c0-5.17139-4.21387-9.37891-9.4502-9.37891c-0.15723,0-0.30566,0.07422-0.40039,0.20068l-2.71582,3.63379l-2.71484-3.63379
			c-0.09375-0.12646-0.3291-0.20068-0.48633-0.20068c-2.65161,0-5.03448,1.12036-6.74127,2.89587
			c-0.00598-0.0033-0.01117-0.00732-0.01715-0.01062c-1.65997-0.92017-3.57996-1.45007-5.62-1.45007
			c-0.15997,0-0.31,0.06995-0.39996,0.20007l-3.45001,4.60986l-3.44-4.60986c-0.09998-0.13013-0.23999-0.20007-0.40002-0.20007
			h-0.10999c-1.92999,0-3.75,0.47998-5.34998,1.33997c-0.00488,0.00244-0.00928,0.00586-0.0141,0.0083
			c-1.7088-1.70972-4.06421-2.78345-6.69189-2.78345c-0.15723,0-0.30566,0.07422-0.40039,0.20068l-2.71582,3.63379l-2.71582-3.63379
			c-0.09473-0.12646-0.32813-0.20068-0.48535-0.20068c-5.17188,0-9.37891,4.20752-9.37891,9.37891v4.92334
			c0,0.27637,0.22363,0.5,0.5,0.5h15.80225v4.16284c0,0.27002,0.22003,0.5,0.5,0.5h15.20001v4.93018
			c-2.31,0.21997-4.15997,2.03992-4.42999,4.35986l-23.56-0.04993v10.39001H1.25248v9.11987h9.10004v-9.11987H6.26249v-9.39001
			l22.53998,0.04993c0.17462,2.25007,1.97744,4.26201,4.45001,4.52002v4.94995h-4.06v9.12011h9.10998v-9.12011h-4.04999V50.7866
			c2.35004-0.22998,4.21002-2.11987,4.41998-4.48999l21.53003,0.05005v9.3999h-4.09003v9.12011h9.11005v-9.12011H61.20249z
			 M49.01877,17.52488l2.96289,3.96582c0.09375,0.12646,0.24219,0.20068,0.40039,0.20068c0.15723,0,0.30566-0.07422,0.40039-0.20068
			l2.96484-3.96729c4.54004,0.10205,8.20117,3.82031,8.20117,8.37695v4.42334H48.3425v-0.91699
			c0-3.91882-1.98877-7.3877-5.02704-9.44775C44.7858,18.51292,46.78189,17.58787,49.01877,17.52488z M2.25022,30.32371v-4.42334
			c0-4.53857,3.62793-8.24609,8.21582-8.37549l2.96387,3.96582c0.18945,0.25293,0.61133,0.25293,0.80078,0l2.96484-3.96729
			c2.15381,0.04871,4.09906,0.92163,5.55945,2.30176c0,0-0.00171,0.00098-0.0025,0.00146
			c-3.13,2.04004-5.20001,5.57007-5.20001,9.58008v0.91699H2.25022z M18.55247,29.40672c0-5.71008,4.61005-10.37012,10.31-10.45007
			l3.69,4.94006c0.19,0.25,0.61005,0.25,0.80005,0l3.69995-4.94006c5.69,0.09998,10.29004,4.75,10.29004,10.45007v5.57984h-4.4599
			l0.46234-4.36939L42.3508,30.5117l-0.47351,4.47486H24.32139l-0.47351-4.47486l-0.99414,0.10547l0.46234,4.36939h-4.76361
			V29.40672z M9.35251,63.73655H2.25248v-7.11987h7.10004V63.73655z M37.30246,63.86668h-7.10998v-7.12012h7.10998V63.86668z
			 M33.75248,49.81663c-2.21505,0-3.96997-1.79922-3.96997-3.97998c0-2.13005,1.73316-3.94995,3.96997-3.94995
			c2.06058,0,3.95001,1.63661,3.95001,3.97998C37.70249,48.05259,35.92157,49.81663,33.75248,49.81663z M64.22251,63.86668h-7.11005
			v-7.12012h7.11005V63.86668z"></path></g></svg>